<?xml version="1.0" standalone="no"?><!DOCTYPE svg PUBLIC "-//W3C//DTD SVG 1.1//EN" "http://www.w3.org/Graphics/SVG/1.1/DTD/svg11.dtd"><svg t="1563344717159" class="icon" viewBox="0 0 1024 1024" version="1.1" xmlns="http://www.w3.org/2000/svg" p-id="987" xmlns:xlink="http://www.w3.org/1999/xlink" width="200" height="200"><defs><style type="text/css"></style></defs><path d="M512 76.8a25.6 25.6 0 0 1-25.6-25.6V25.6a25.6 25.6 0 0 1 51.2 0v25.6a25.6 25.6 0 0 1-25.6 25.6zM51.2 537.6H25.6a25.6 25.6 0 0 1 0-51.2h25.6a25.6 25.6 0 0 1 0 51.2zM998.4 537.6h-25.6a25.6 25.6 0 0 1 0-51.2h25.6a25.6 25.6 0 0 1 0 51.2zM576 1024H448c-84.6976 0-153.6-68.9024-153.6-153.6v-42.1632C189.9392 756.5696 128 639.3984 128 512c0-211.7376 172.2624-384 384-384s384 172.2624 384 384c0 127.4112-61.9392 244.5696-166.4 316.2368V870.4c0 84.6976-68.9024 153.6-153.6 153.6z m-64-844.8c-183.5008 0-332.8 149.2992-332.8 332.8 0 114.5344 57.7536 219.52 154.5088 280.832 7.3984 4.7104 11.8912 12.8512 11.8912 21.632V870.4c0 56.4608 45.9392 102.4 102.4 102.4h128c56.4608 0 102.4-45.9392 102.4-102.4v-55.936c0-8.7808 4.4928-16.9216 11.904-21.6192C787.0336 731.52 844.8 626.5344 844.8 512c0-183.5008-149.2864-332.8-332.8-332.8zM186.176 211.7632a25.536 25.536 0 0 1-18.0992-7.488l-18.112-18.0992a25.6 25.6 0 1 1 36.1856-36.2112l18.112 18.0992a25.6 25.6 0 0 1-18.0864 43.6992zM837.8368 211.776a25.6 25.6 0 0 1-18.112-43.6864l18.0992-18.112a25.6 25.6 0 1 1 36.224 36.1856l-18.0992 18.112a25.5232 25.5232 0 0 1-18.112 7.5008z" fill="#333333" p-id="988"></path><path d="M576 932.0192H448a25.6 25.6 0 0 1 0-51.2h128a25.6 25.6 0 0 1 0 51.2z" fill="#333333" p-id="989"></path><path d="M511.9872 742.4a25.6256 25.6256 0 0 1-22.8864-37.056L572.9792 537.6H409.6a25.6256 25.6256 0 0 1-22.3232-38.144l115.2-204.8a25.6 25.6 0 1 1 44.6336 25.1008L453.376 486.4H614.4a25.5872 25.5872 0 0 1 22.8992 37.056l-102.4 204.8A25.6 25.6 0 0 1 511.9872 742.4z" fill="#333333" p-id="990"></path></svg>