<?xml version="1.0" standalone="no"?><!DOCTYPE svg PUBLIC "-//W3C//DTD SVG 1.1//EN" "http://www.w3.org/Graphics/SVG/1.1/DTD/svg11.dtd"><svg t="1563344707260" class="icon" viewBox="0 0 1024 1024" version="1.1" xmlns="http://www.w3.org/2000/svg" p-id="629" xmlns:xlink="http://www.w3.org/1999/xlink" width="200" height="200"><defs><style type="text/css"></style></defs><path d="M873.672738 66.877153 150.324192 66.877153c-46.078455 0-83.463923 37.438681-83.463923 83.463923l0 500.779448c0 46.025243 37.384445 83.463923 83.463923 83.463923l296.033273 0 0 166.900218L205.85902 901.484665c-15.325034 0-27.821649 12.444427-27.821649 27.821649s12.497639 27.819602 27.821649 27.819602L817.921993 957.125917c15.431457 0 27.822672-12.44238 27.822672-27.819602s-12.391215-27.821649-27.822672-27.821649L557.642015 901.484665 557.642015 734.583424l316.030723 0c45.969984 0 83.463923-37.438681 83.463923-83.463923L957.136661 150.340053C957.137685 104.315834 919.642722 66.877153 873.672738 66.877153zM901.494387 651.119501c0 15.350616-12.497639 27.821649-27.821649 27.821649L150.324192 678.94115c-15.377222 0-27.821649-12.471033-27.821649-27.821649L122.502543 150.340053c0-15.350616 12.443403-27.821649 27.821649-27.821649l723.348546 0c15.32401 0 27.821649 12.471033 27.821649 27.821649L901.494387 651.119501z" p-id="630"></path></svg>