<?xml version="1.0" standalone="no"?><!DOCTYPE svg PUBLIC "-//W3C//DTD SVG 1.1//EN" "http://www.w3.org/Graphics/SVG/1.1/DTD/svg11.dtd"><svg t="1562669618910" class="icon" viewBox="0 0 1024 1024" version="1.1" xmlns="http://www.w3.org/2000/svg" p-id="2863" xmlns:xlink="http://www.w3.org/1999/xlink" width="200" height="200"><defs><style type="text/css"></style></defs><path d="M405.333333 106.666667H170.666667C134.4 106.666667 106.666667 134.4 106.666667 170.666667v234.666666c0 36.266667 27.733333 64 64 64h234.666666c36.266667 0 64-27.733333 64-64V170.666667c0-36.266667-27.733333-64-64-64z m-32 202.666666h-64v64c0 12.8-8.533333 21.333333-21.333333 21.333334s-21.333333-8.533333-21.333333-21.333334v-64h-64c-12.8 0-21.333333-8.533333-21.333334-21.333333s8.533333-21.333333 21.333334-21.333333h64v-64c0-12.8 8.533333-21.333333 21.333333-21.333334s21.333333 8.533333 21.333333 21.333334v64h64c12.8 0 21.333333 8.533333 21.333334 21.333333s-10.666667 21.333333-21.333334 21.333333zM853.333333 106.666667H618.666667c-36.266667 0-64 27.733333-64 64v234.666666c0 36.266667 27.733333 64 64 64h234.666666c36.266667 0 64-27.733333 64-64V170.666667c0-36.266667-27.733333-64-64-64z m-32 202.666666h-170.666666c-12.8 0-21.333333-8.533333-21.333334-21.333333s8.533333-21.333333 21.333334-21.333333h170.666666c12.8 0 21.333333 8.533333 21.333334 21.333333s-8.533333 21.333333-21.333334 21.333333zM853.333333 554.666667H618.666667c-36.266667 0-64 27.733333-64 64v234.666666c0 36.266667 27.733333 64 64 64h234.666666c36.266667 0 64-27.733333 64-64V618.666667c0-36.266667-27.733333-64-64-64z m-42.666666 245.333333h-149.333334c-12.8 0-21.333333-8.533333-21.333333-21.333333s8.533333-21.333333 21.333333-21.333334h149.333334c12.8 0 21.333333 8.533333 21.333333 21.333334s-8.533333 21.333333-21.333333 21.333333z m0-85.333333h-149.333334c-12.8 0-21.333333-8.533333-21.333333-21.333334s8.533333-21.333333 21.333333-21.333333h149.333334c12.8 0 21.333333 8.533333 21.333333 21.333333s-8.533333 21.333333-21.333333 21.333334zM405.333333 554.666667H170.666667c-36.266667 0-64 27.733333-64 64v234.666666c0 36.266667 27.733333 64 64 64h234.666666c36.266667 0 64-27.733333 64-64V618.666667c0-36.266667-27.733333-64-64-64z m-32 234.666666c8.533333 8.533333 8.533333 21.333333 0 29.866667-4.266667 4.266667-10.666667 6.4-14.933333 6.4-6.4 0-10.666667-2.133333-14.933333-6.4l-55.466667-55.466667-55.466667 55.466667c-4.266667 4.266667-8.533333 6.4-14.933333 6.4-6.4 0-10.666667-2.133333-14.933333-6.4-8.533333-8.533333-8.533333-21.333333 0-29.866667l55.466666-53.333333L202.666667 682.666667c-8.533333-8.533333-8.533333-21.333333 0-29.866667 8.533333-8.533333 21.333333-8.533333 29.866666 0l55.466667 55.466667 55.466667-55.466667c8.533333-8.533333 21.333333-8.533333 29.866666 0 8.533333 8.533333 8.533333 21.333333 0 29.866667l-55.466666 53.333333 55.466666 53.333333z" p-id="2864" fill="#1296db"></path></svg>