<?xml version="1.0" standalone="no"?><!DOCTYPE svg PUBLIC "-//W3C//DTD SVG 1.1//EN" "http://www.w3.org/Graphics/SVG/1.1/DTD/svg11.dtd"><svg t="1562670038817" class="icon" viewBox="0 0 1024 1024" version="1.1" xmlns="http://www.w3.org/2000/svg" p-id="7908" xmlns:xlink="http://www.w3.org/1999/xlink" width="200" height="200"><defs><style type="text/css"></style></defs><path d="M908.8 0H115.2C73.216 0 38.4 34.816 38.4 76.8v870.4c0 41.984 34.816 76.8 76.8 76.8H908.8c41.984 0 76.8-34.816 76.8-76.8v-870.4C985.6 33.792 950.784 0 908.8 0zM104.96 117.76c0-23.552 19.456-44.032 44.032-44.032h727.04c23.552 0 44.032 19.456 44.032 44.032v136.192c0 23.552-19.456 44.032-44.032 44.032h-727.04c-23.552 0-44.032-19.456-44.032-44.032V117.76z m74.752 840.704c-41.984 0-74.752-33.792-74.752-74.752S138.752 808.96 179.712 808.96s74.752 33.792 74.752 74.752-33.792 74.752-74.752 74.752z m0-218.112c-41.984 0-74.752-33.792-74.752-74.752s33.792-74.752 74.752-74.752 74.752 33.792 74.752 74.752-33.792 74.752-74.752 74.752z m0-218.112c-41.984 0-74.752-33.792-74.752-74.752s33.792-74.752 74.752-74.752 74.752 33.792 74.752 74.752-33.792 74.752-74.752 74.752z m221.184 436.224c-41.984 0-74.752-33.792-74.752-74.752s33.792-74.752 74.752-74.752 74.752 33.792 74.752 74.752-32.768 74.752-74.752 74.752z m0-218.112c-41.984 0-74.752-33.792-74.752-74.752s33.792-74.752 74.752-74.752 74.752 33.792 74.752 74.752-32.768 74.752-74.752 74.752z m0-218.112c-41.984 0-74.752-33.792-74.752-74.752s33.792-75.776 74.752-75.776 74.752 33.792 74.752 74.752-32.768 75.776-74.752 75.776zM622.08 958.464c-41.984 0-74.752-33.792-74.752-74.752S581.12 808.96 622.08 808.96s74.752 33.792 74.752 74.752-32.768 74.752-74.752 74.752z m0-218.112c-41.984 0-74.752-33.792-74.752-74.752s33.792-74.752 74.752-74.752 74.752 33.792 74.752 74.752-32.768 74.752-74.752 74.752zM622.08 522.24c-41.984 0-74.752-33.792-74.752-74.752s33.792-74.752 74.752-74.752 74.752 33.792 74.752 74.752S664.064 522.24 622.08 522.24z m296.96 361.472c0 40.96-33.792 74.752-74.752 74.752s-74.752-33.792-74.752-74.752V665.6c0-40.96 33.792-74.752 74.752-74.752S919.04 624.64 919.04 665.6v218.112zM844.288 522.24c-41.984 0-74.752-33.792-74.752-74.752s33.792-74.752 74.752-74.752 74.752 33.792 74.752 74.752-33.792 74.752-74.752 74.752z" p-id="7909" fill="#1296db"></path></svg>