<?xml version="1.0" standalone="no"?><!DOCTYPE svg PUBLIC "-//W3C//DTD SVG 1.1//EN" "http://www.w3.org/Graphics/SVG/1.1/DTD/svg11.dtd"><svg t="1562670203651" class="icon" viewBox="0 0 1024 1024" version="1.1" xmlns="http://www.w3.org/2000/svg" p-id="11140" xmlns:xlink="http://www.w3.org/1999/xlink" width="200" height="200"><defs><style type="text/css"></style></defs><path d="M809.984 128q34.005333 0 59.989333 25.984t25.984 59.989333l0 596.010667q0 34.005333-25.984 59.989333t-59.989333 25.984l-212.010667 0 0-384 212.010667 256 0-553.984-212.010667 0 0-86.016 212.010667 0zM425.984 768l0-256-212.010667 256 212.010667 0zM425.984 128l0-86.016 86.016 0 0 939.989333-86.016 0 0-86.016-212.010667 0q-34.005333 0-59.989333-25.984t-25.984-59.989333l0-596.010667q0-34.005333 25.984-59.989333t59.989333-25.984l212.010667 0z" p-id="11141" fill="#1296db"></path></svg>