<?xml version="1.0" standalone="no"?><!DOCTYPE svg PUBLIC "-//W3C//DTD SVG 1.1//EN" "http://www.w3.org/Graphics/SVG/1.1/DTD/svg11.dtd"><svg t="1562669881577" class="icon" viewBox="0 0 1024 1024" version="1.1" xmlns="http://www.w3.org/2000/svg" p-id="4814" xmlns:xlink="http://www.w3.org/1999/xlink" width="200" height="200"><defs><style type="text/css"></style></defs><path d="M556.8 739.1c-18.8 13-35.1 22.4-46 28.2-88.4-48-152.2-112-189.7-190.4-28.8-60.3-30.9-107.9-31-110.9V343.8c15.1 2.6 30.2 4 45 4 82.5 0 142.2-40 175.3-69.9 56.2 59.8 118.8 73.4 164.1 73.4 20.8 0 39.9-2.9 56-6.7v130.3c-0.7 5.1-1.5 10.2-2.4 15.2 31.4-1.4 53.4 13.4 66.2 25.9 2.4-11.4 4.4-22.8 5.9-34.4l0.3-2.2V236.9L749 264.6c-0.3 0.2-32.3 16.7-74.4 16.7-52.6 0-97.6-25.8-133.7-76.6L512.8 165l-28.7 39.2c-0.1 0.2-13.5 18.1-38.6 36.3-34 24.7-71.1 37.2-110.4 37.3-22.2 0-45.2-4.1-68.6-12.2L220 249.5v217.4c0 2.5 1 61.5 36 136.5 20.3 43.5 47.9 83.9 82.2 120.2 42.4 44.9 94.9 83.3 156.3 114.4l14.7 7.4 15.1-6.6c1.7-0.7 28.4-12.6 64.7-36.8-29.1-13.3-33.2-42.6-32.2-62.9z" p-id="4815" fill="#1296db"></path><path d="M444.232 361.268l93.267 93.267-42.426 42.426-93.267-93.267z" p-id="4816" fill="#1296db"></path><path d="M581.884 361.3l42.426 42.426-93.266 93.267-42.426-42.426z" p-id="4817" fill="#1296db"></path><path d="M422.6 471.3h181.9v40H422.6zM422.6 542.8h181.9v40H422.6z" p-id="4818" fill="#1296db"></path><path d="M486.2 468.7h60v194.2h-60zM818.1 696.7H655.5c-10.8 0-19.6-13.4-19.6-29.9s8.8-29.9 19.6-29.9H818c10.8 0 19.6 13.4 19.6 29.9 0.1 16.5-8.7 29.9-19.5 29.9z" p-id="4819" fill="#1296db"></path><path d="M704.8 774.9c-7.6 0-15.3-2.9-21.1-8.7l-71.6-71.6c-15.3-15.3-15.3-40.1 0-55.4l71.6-71.6c11.7-11.7 30.6-11.7 42.2 0 11.7 11.7 11.7 30.6 0 42.2l-57.1 57.1 57.1 57.1c11.7 11.7 11.7 30.6 0 42.2-5.8 5.8-13.4 8.7-21.1 8.7z" p-id="4820" fill="#1296db"></path></svg>