<?xml version="1.0" standalone="no"?><!DOCTYPE svg PUBLIC "-//W3C//DTD SVG 1.1//EN" "http://www.w3.org/Graphics/SVG/1.1/DTD/svg11.dtd"><svg t="1562670170039" class="icon" viewBox="0 0 1024 1024" version="1.1" xmlns="http://www.w3.org/2000/svg" p-id="10672" xmlns:xlink="http://www.w3.org/1999/xlink" width="200" height="200"><defs><style type="text/css"></style></defs><path d="M187.989333 619.648l145.152-145.152 120.661334 120.704 134.698666-134.698667L512 384h213.333333v213.333333l-76.501333-76.501333-195.029333 195.029333-120.661334-120.661333-105.6 105.557333a341.333333 341.333333 0 1 0-39.552-81.066666z m-65.621333 66.474667l-0.426667-0.426667 0.170667-0.170667A425.173333 425.173333 0 0 1 85.333333 512C85.333333 276.352 276.352 85.333333 512 85.333333s426.666667 191.018667 426.666667 426.666667-191.018667 426.666667-426.666667 426.666667c-173.653333 0-322.986667-103.68-389.632-252.544z" p-id="10673" fill="#1296db"></path></svg>