<?xml version="1.0" standalone="no"?><!DOCTYPE svg PUBLIC "-//W3C//DTD SVG 1.1//EN" "http://www.w3.org/Graphics/SVG/1.1/DTD/svg11.dtd"><svg t="1562670077143" class="icon" viewBox="0 0 1024 1024" version="1.1" xmlns="http://www.w3.org/2000/svg" p-id="8427" xmlns:xlink="http://www.w3.org/1999/xlink" width="200" height="200"><defs><style type="text/css"></style></defs><path d="M612.266667 477.866667c-2.133333-53.333333-44.8-96-96-96-53.333333 0-96 42.666667-96 96 0 21.333333 2.133333 42.666667 2.133333 64 6.4 104.533333 10.666667 187.733333-151.466667 307.2-8.533333 6.4-10.666667 21.333333-4.266666 29.866666 6.4 8.533333 21.333333 10.666667 29.866666 4.266667 179.2-134.4 174.933333-236.8 168.533334-345.6 0-19.2-2.133333-40.533333-2.133334-61.866667 0-29.866667 23.466667-53.333333 53.333334-53.333333s53.333333 23.466667 53.333333 55.466667c8.533333 202.666667-29.866667 337.066667-123.733333 437.333333-8.533333 8.533333-8.533333 21.333333 0 29.866667 4.266667 4.266667 8.533333 6.4 14.933333 6.4 6.4 0 10.666667-2.133333 14.933333-6.4 102.4-106.666667 145.066667-251.733333 136.533334-467.2z" p-id="8428" fill="#1296db"></path><path d="M686.933333 480c0-96-76.8-172.8-172.8-172.8S341.333333 384 341.333333 480c0 17.066667 0 32 2.133334 49.066667 4.266667 96 8.533333 185.6-142.933334 268.8-10.666667 6.4-14.933333 19.2-8.533333 29.866666 6.4 10.666667 19.2 14.933333 29.866667 8.533334 177.066667-93.866667 170.666667-206.933333 166.4-307.2 0-17.066667-2.133333-32-2.133334-46.933334 0-72.533333 57.6-130.133333 130.133334-130.133333 72.533333 0 130.133333 57.6 130.133333 130.133333 0 2.133333 12.8 296.533333-96 439.466667-6.4 8.533333-4.266667 23.466667 4.266667 29.866667 4.266667 2.133333 8.533333 4.266667 12.8 4.266666 6.4 0 12.8-2.133333 17.066666-8.533333 115.2-155.733333 102.4-456.533333 102.4-467.2z" p-id="8429" fill="#1296db"></path><path d="M514.133333 232.533333c-72.533333 0-142.933333 32-189.866666 83.2-42.666667 46.933333-64 106.666667-57.6 166.4 0 10.666667 2.133333 21.333333 4.266666 34.133334 10.666667 96 19.2 166.4-117.333333 194.133333-10.666667 2.133333-19.2 12.8-17.066667 25.6 2.133333 10.666667 12.8 19.2 23.466667 14.933333 174.933333-38.4 162.133333-145.066667 151.466667-241.066666-2.133333-10.666667-2.133333-21.333333-4.266667-32-4.266667-49.066667 12.8-96 46.933333-134.4 40.533333-42.666667 98.133333-68.266667 157.866667-68.266667 113.066667 0 204.8 91.733333 204.8 204.8 0 2.133333 0 245.333333-61.866667 416-4.266667 10.666667 2.133333 23.466667 12.8 27.733333 2.133333 0 4.266667 2.133333 6.4 2.133334 8.533333 0 17.066667-6.4 19.2-14.933334 64-177.066667 66.133333-420.266667 66.133334-430.933333 2.133333-136.533333-108.8-247.466667-245.333334-247.466667z" p-id="8430" fill="#1296db"></path><path d="M535.466667 520.533333v-40.533333c0-12.8-8.533333-21.333333-21.333334-21.333333s-21.333333 8.533333-21.333333 21.333333v40.533333c2.133333 121.6 4.266667 228.266667-145.066667 371.2-8.533333 8.533333-8.533333 21.333333 0 29.866667 4.266667 4.266667 10.666667 6.4 14.933334 6.4 4.266667 0 10.666667-2.133333 14.933333-6.4 162.133333-155.733333 160-275.2 157.866667-401.066667z" p-id="8431" fill="#1296db"></path><path d="M785.066667 866.133333c34.133333-132.266667 53.333333-322.133333 53.333333-388.266666 0-87.466667-34.133333-168.533333-93.866667-228.266667-61.866667-59.733333-142.933333-93.866667-230.4-93.866667-87.466667 0-168.533333 34.133333-228.266666 93.866667C224 311.466667 192 392.533333 192 477.866667c0 32 4.266667 64 14.933333 93.866666 2.133333 8.533333-2.133333 17.066667-10.666666 19.2-4.266667 2.133333-8.533333 2.133333-12.8 0-4.266667-2.133333-6.4-6.4-8.533334-10.666666-10.666667-34.133333-14.933333-68.266667-14.933333-102.4 0-96 36.266667-185.6 104.533333-251.733334 68.266667-68.266667 157.866667-104.533333 251.733334-104.533333 96 0 185.6 36.266667 251.733333 104.533333 68.266667 68.266667 104.533333 157.866667 104.533333 251.733334 0 76.8-8.533333 194.133333-29.866666 290.133333-2.133333 10.666667 4.266667 23.466667 17.066666 25.6 10.666667 2.133333 23.466667-4.266667 25.6-17.066667 21.333333-100.266667 29.866667-219.733333 29.866667-298.666666 0-106.666667-40.533333-206.933333-117.333333-281.6-74.666667-74.666667-174.933333-117.333333-281.6-117.333334S309.333333 119.466667 234.666667 196.266667c-74.666667 74.666667-117.333333 174.933333-117.333334 281.6 0 38.4 6.4 78.933333 17.066667 115.2 4.266667 14.933333 14.933333 29.866667 29.866667 36.266666 14.933333 6.4 32 8.533333 46.933333 2.133334 29.866667-10.666667 44.8-42.666667 36.266667-72.533334-8.533333-25.6-12.8-53.333333-12.8-81.066666 0-74.666667 29.866667-145.066667 83.2-198.4 53.333333-53.333333 123.733333-83.2 198.4-83.2 74.666667 0 145.066667 29.866667 198.4 83.2 53.333333 53.333333 83.2 123.733333 83.2 198.4 0 59.733333-19.2 249.6-51.2 375.466666-2.133333 10.666667 4.266667 23.466667 14.933333 25.6h6.4c6.4 4.266667 14.933333-2.133333 17.066667-12.8zM981.333333 778.666667c-12.8 0-21.333333 8.533333-21.333333 21.333333V960c0 6.4-4.266667 10.666667-10.666667 10.666667H789.333333c-12.8 0-21.333333 8.533333-21.333333 21.333333s8.533333 21.333333 21.333333 21.333333h160c29.866667 0 53.333333-23.466667 53.333334-53.333333v-160c0-12.8-10.666667-21.333333-21.333334-21.333333zM949.333333 38.4H789.333333c-12.8 0-21.333333 8.533333-21.333333 21.333333s8.533333 21.333333 21.333333 21.333334h160c6.4 0 10.666667 4.266667 10.666667 10.666666v160c0 12.8 8.533333 21.333333 21.333333 21.333334s21.333333-8.533333 21.333334-21.333334V91.733333c0-29.866667-23.466667-53.333333-53.333334-53.333333zM49.066667 273.066667c12.8 0 21.333333-8.533333 21.333333-21.333334V91.733333c0-6.4 4.266667-10.666667 10.666667-10.666666h160c12.8 0 21.333333-8.533333 21.333333-21.333334s-8.533333-21.333333-21.333333-21.333333H81.066667c-29.866667 0-53.333333 23.466667-53.333334 53.333333v160c0 12.8 8.533333 21.333333 21.333334 21.333334zM241.066667 970.666667H81.066667c-6.4 0-10.666667-4.266667-10.666667-10.666667v-160c0-12.8-8.533333-21.333333-21.333333-21.333333s-21.333333 8.533333-21.333334 21.333333V960c0 29.866667 23.466667 53.333333 53.333334 53.333333h160c12.8 0 21.333333-8.533333 21.333333-21.333333s-8.533333-21.333333-21.333333-21.333333z" p-id="8432" fill="#1296db"></path></svg>