<?xml version="1.0" standalone="no"?><!DOCTYPE svg PUBLIC "-//W3C//DTD SVG 1.1//EN" "http://www.w3.org/Graphics/SVG/1.1/DTD/svg11.dtd"><svg t="1562669775939" class="icon" viewBox="0 0 1024 1024" version="1.1" xmlns="http://www.w3.org/2000/svg" p-id="3989" xmlns:xlink="http://www.w3.org/1999/xlink" width="200" height="200"><defs><style type="text/css"></style></defs><path d="M731.428571 237.714286h109.714286a18.285714 18.285714 0 0 1 18.285714 18.285714v585.142857a18.285714 18.285714 0 0 1-18.285714 18.285714H182.857143a18.285714 18.285714 0 0 1-18.285714-18.285714V256a18.285714 18.285714 0 0 1 18.285714-18.285714h109.714286v-17.92a54.857143 54.857143 0 1 1 109.714285 0v17.92h219.428572v-17.92a54.857143 54.857143 0 1 1 109.714285 0v17.92z m0 36.571428v17.92a54.857143 54.857143 0 1 1-109.714285 0V274.285714h-219.428572v17.92a54.857143 54.857143 0 1 1-109.714285 0V274.285714H201.142857v548.571429h621.714286v-548.571429H731.428571z m-475.428571 182.857143a18.285714 18.285714 0 1 1 0-36.571428h512a18.285714 18.285714 0 1 1 0 36.571428H256z m352.768 78.482286a18.285714 18.285714 0 0 1 25.892571 25.892571l-146.285714 146.285715a18.285714 18.285714 0 0 1-25.892571 0l-73.142857-73.142858a18.285714 18.285714 0 0 1 25.892571-25.892571L475.428571 669.001143l133.339429-133.376zM365.714286 292.242286V219.757714a18.285714 18.285714 0 1 0-36.571429 0v72.484572a18.285714 18.285714 0 1 0 36.571429 0z m329.142857 0V219.757714a18.285714 18.285714 0 1 0-36.571429 0v72.484572a18.285714 18.285714 0 1 0 36.571429 0z" p-id="3990" fill="#1296db"></path></svg>