<?xml version="1.0" standalone="no"?><!DOCTYPE svg PUBLIC "-//W3C//DTD SVG 1.1//EN" "http://www.w3.org/Graphics/SVG/1.1/DTD/svg11.dtd"><svg t="1562670256298" class="icon" viewBox="0 0 1024 1024" version="1.1" xmlns="http://www.w3.org/2000/svg" p-id="11953" xmlns:xlink="http://www.w3.org/1999/xlink" width="200" height="200"><defs><style type="text/css"></style></defs><path d="M789.491605 367.856306c-33.986724 0-61.575947-27.589223-61.575947-61.575947s27.589223-61.575947 61.575947-61.575947 61.575947 27.589223 61.575947 61.575947c0.399844 33.986724-27.189379 61.575947-61.575947 61.575947zM400.443577 277.491605c-33.986724 0-61.575947-27.589223-61.575947-61.575947s27.589223-61.575947 61.575947-61.575947 61.575947 27.589223 61.575947 61.575947-27.589223 61.575947-61.575947 61.575947zM594.767669 108.757517c-21.99141 0-40.384225-17.992971-40.384225-40.384225 0-21.99141 17.992971-40.384225 40.384225-40.384225s40.384225 17.992971 40.384225 40.384225-17.992971 40.384225-40.384225 40.384225z" fill="#1296db" p-id="11954"></path><path d="M506.402187 882.855135c-8.39672 0-16.79344-1.999219-24.790317-5.597814l-163.536118-77.969543 5.597813-11.59547 163.536119 77.969543c13.59469 6.397501 29.588442 5.597813 42.783287-2.399063 12.795002-7.996876 20.791878-21.99141 20.791879-37.185474 0-16.393596-9.196408-31.587661-23.590785-39.184694l-189.525967-99.161265H27.789145v-12.795002H340.067161l192.324873 100.360797c18.792659 9.996095 30.787973 29.188598 30.787974 50.780164 0 19.592347-9.996095 37.585318-26.789536 48.381101-8.796564 5.19797-19.192503 8.39672-29.988285 8.39672z" fill="#1296db" p-id="11955"></path><path d="M541.988286 1024c-33.58688 0-67.17376-6.797345-98.761421-20.392034l-259.09879-111.956267H28.188989v-12.795002h158.737993l261.497852 113.155798c63.175322 27.189379 135.147208 25.590004 197.122999-4.398282l312.278016-151.940648c22.391253-10.795783 31.587661-36.785631 21.591566-59.576728-9.996095-22.791097-35.985943-32.787193-58.77704-23.190941L651.945334 865.661851c-101.560328 42.783288-163.935963 19.192503-206.71925-5.997657l6.397501-11.195627c60.376415 35.985943 118.753612 37.185474 195.123779 5.19797l268.295197-113.155799c29.188598-12.395158 62.775478 0.799688 75.970325 29.588442 13.194846 28.788754 0.799688 62.375635-27.589223 76.370168l-312.278017 151.940648c-34.786412 17.193284-71.971886 25.590004-109.15736 25.590004z" fill="#1296db" p-id="11956"></path><path d="M506.402187 882.855135c-8.39672 0-16.79344-1.999219-24.390473-5.597814l-37.185474-17.992971-0.399844-0.399844 4.398282-4.398282 1.199531-1.599375 1.999219-4.398282 35.5861 16.79344c5.997657 2.798907 12.395158 4.398282 18.792659 4.398282 24.390472 0 44.382663-19.992191 44.382663-44.382663 0-16.393596-9.196408-31.587661-23.590785-39.184694l-3.998438-1.999219 5.997657-11.59547 3.998438 1.999219c18.792659 9.996095 30.787973 29.188598 30.787973 50.780164-0.399844 31.987505-25.989848 57.577509-57.577508 57.577509z" fill="#1296db" p-id="11957"></path><path d="M549.585318 889.65248c-31.987505 0-66.773916-7.996876-103.959391-29.588443l-1.599375-1.199531 4.398282-4.398282 3.598594-5.597813c60.376415 35.586099 118.753612 36.785631 194.723936 4.798126l77.969543-32.787193 5.19797 11.995314-77.969543 32.787193c-29.188598 12.395158-63.575166 23.990629-102.360016 23.990629z" fill="#1296db" p-id="11958"></path><path d="M506.402187 882.855135c-8.39672 0-16.79344-1.999219-24.390473-5.597814l-71.971886-34.386567 5.597814-11.595471 71.971886 34.386568c5.997657 2.798907 12.395158 4.398282 18.792659 4.398282 24.390472 0 44.382663-19.992191 44.382663-44.382663 0-16.393596-9.196408-31.587661-23.590785-39.184694l-3.998438-1.999219 5.997657-11.59547 3.998438 1.999219c18.792659 9.996095 30.787973 29.188598 30.787973 50.780164-0.399844 31.587661-25.989848 57.177665-57.577508 57.177665z" fill="#1296db" p-id="11959"></path><path d="M549.985162 890.052323c-31.987505 0-66.374073-7.996876-104.359235-29.988286l-1.599375-1.199531 4.398282-4.398282 1.999219-2.798907 1.599375-2.798906h0.399844c76.770012 43.982819 138.745802 28.388911 194.723936 4.798126l77.969543-32.787193 5.19797 11.995314-77.969543 32.787193c-31.987505 13.59469-65.574385 24.390472-102.360016 24.390472zM547.586099 809.283873c-3.998438-9.996095-11.195627-17.992971-20.392034-22.791097l-3.998438-1.999219-185.527529-96.762202H256.899649v-12.795002h83.567356l192.324873 100.360797c11.995314 6.397501 21.591566 16.79344 26.789536 29.588442l-11.995315 4.398281z" fill="#1296db" p-id="11960"></path><path d="M547.586099 809.283873c-3.998438-9.996095-11.195627-17.992971-20.392034-22.791097l-3.998438-1.999219 5.997657-11.59547 3.998438 1.999219c11.995314 6.397501 21.591566 16.79344 26.789535 29.588442l-12.395158 4.798125z" fill="#1296db" p-id="11961"></path><path d="M547.586099 809.283873c-3.998438-9.996095-11.195627-17.992971-20.392034-22.791097l-3.998438-1.999219 5.997657-11.59547 3.998438 1.999219c11.995314 6.397501 21.591566 16.79344 26.789535 29.588442l-12.395158 4.798125z" fill="#1296db" p-id="11962"></path><path d="M506.402187 882.855135c-8.39672 0-16.79344-1.999219-24.790317-5.597814l-163.536118-77.969543 5.597813-11.59547 163.536119 77.969543c13.59469 6.397501 29.588442 5.597813 42.783287-2.399063 12.795002-7.996876 20.791878-21.99141 20.791879-37.185474 0-16.393596-9.196408-31.587661-23.590785-39.184694l-189.525967-99.161265H27.789145v-12.795002H340.067161l192.324873 100.360797c18.792659 9.996095 30.787973 29.188598 30.787974 50.780164 0 19.592347-9.996095 37.585318-26.789536 48.381101-8.796564 5.19797-19.192503 8.39672-29.988285 8.39672z" fill="#1296db" p-id="11963"></path><path d="M541.988286 1024c-33.58688 0-67.17376-6.797345-98.761421-20.392034l-259.09879-111.956267H28.188989v-12.795002h158.737993l261.497852 113.155798c63.175322 27.189379 135.147208 25.590004 197.122999-4.398282l312.278016-151.940648c22.391253-10.795783 31.587661-36.785631 21.591566-59.576728-9.996095-22.791097-35.985943-32.787193-58.77704-23.190941L651.945334 865.661851c-101.560328 42.783288-163.935963 19.192503-206.71925-5.997657l6.397501-11.195627c60.376415 35.985943 118.753612 37.185474 195.123779 5.19797l268.295197-113.155799c29.188598-12.395158 62.775478 0.799688 75.970325 29.588442 13.194846 28.788754 0.799688 62.375635-27.589223 76.370168l-312.278017 151.940648c-34.786412 17.193284-71.971886 25.590004-109.15736 25.590004z" fill="#1296db" p-id="11964"></path><path d="M506.402187 882.855135c-8.39672 0-16.79344-1.999219-24.390473-5.597814l-37.185474-17.992971-0.399844-0.399844 4.398282-4.398282 1.199531-1.599375 1.999219-4.398282 35.5861 16.79344c5.997657 2.798907 12.395158 4.398282 18.792659 4.398282 24.390472 0 44.382663-19.992191 44.382663-44.382663 0-16.393596-9.196408-31.587661-23.590785-39.184694l-3.998438-1.999219 5.997657-11.59547 3.998438 1.999219c18.792659 9.996095 30.787973 29.188598 30.787973 50.780164-0.399844 31.987505-25.989848 57.577509-57.577508 57.577509z" fill="#1296db" p-id="11965"></path><path d="M549.585318 889.65248c-31.987505 0-66.773916-7.996876-103.959391-29.588443l-1.599375-1.199531 4.398282-4.398282 3.598594-5.597813c60.376415 35.586099 118.753612 36.785631 194.723936 4.798126l77.969543-32.787193 5.19797 11.995314-77.969543 32.787193c-29.188598 12.395158-63.575166 23.990629-102.360016 23.990629z" fill="#1296db" p-id="11966"></path><path d="M506.402187 882.855135c-8.39672 0-16.79344-1.999219-24.390473-5.597814l-71.971886-34.386567 5.597814-11.595471 71.971886 34.386568c5.997657 2.798907 12.395158 4.398282 18.792659 4.398282 24.390472 0 44.382663-19.992191 44.382663-44.382663 0-16.393596-9.196408-31.587661-23.590785-39.184694l-3.998438-1.999219 5.997657-11.59547 3.998438 1.999219c18.792659 9.996095 30.787973 29.188598 30.787973 50.780164-0.399844 31.587661-25.989848 57.177665-57.577508 57.177665z" fill="#1296db" p-id="11967"></path><path d="M549.985162 890.052323c-31.987505 0-66.374073-7.996876-104.359235-29.988286l-1.599375-1.199531 4.398282-4.398282 1.999219-2.798907 1.599375-2.798906h0.399844c76.770012 43.982819 138.745802 28.388911 194.723936 4.798126l77.969543-32.787193 5.19797 11.995314-77.969543 32.787193c-31.987505 13.59469-65.574385 24.390472-102.360016 24.390472zM547.586099 809.283873c-3.998438-9.996095-11.195627-17.992971-20.392034-22.791097l-3.998438-1.999219-185.527529-96.762202H256.899649v-12.795002h83.567356l192.324873 100.360797c11.995314 6.397501 21.591566 16.79344 26.789536 29.588442l-11.995315 4.398281z" fill="#1296db" p-id="11968"></path><path d="M547.586099 809.283873c-3.998438-9.996095-11.195627-17.992971-20.392034-22.791097l-3.998438-1.999219 5.997657-11.59547 3.998438 1.999219c11.995314 6.397501 21.591566 16.79344 26.789535 29.588442l-12.395158 4.798125z" fill="#1296db" p-id="11969"></path><path d="M547.586099 809.283873c-3.998438-9.996095-11.195627-17.992971-20.392034-22.791097l-3.998438-1.999219 5.997657-11.59547 3.998438 1.999219c11.995314 6.397501 21.591566 16.79344 26.789535 29.588442l-12.395158 4.798125z" fill="#1296db" p-id="11970"></path><path d="M963.023819 782.894182c-4.798126-10.395939-14.394377-16.393596-25.19016-16.393596-3.598594 0-7.197189 0.799688-10.795783 2.399063l-268.295197 113.155798c-45.582194 19.192503-83.567357 26.389692-115.155018 26.389692-49.580633 0-84.367044-17.593128-108.757517-34.386568l-124.351425-59.176884 20.791878-43.582976 163.536119 77.969544c3.598594 1.599375 7.597032 2.798907 11.595471 2.798906 4.798126 0 9.596251-1.199531 13.994533-3.998438 7.996876-4.798126 12.395158-13.194846 12.395158-22.391253 0-9.996095-5.597813-18.792659-14.394377-23.590785l-185.927372-96.762202H27.789145v157.538461h161.936743l265.496291 112.356111c27.589223 11.995314 57.177665 17.992971 86.766107 17.992972 32.787193 0 65.574385-7.197189 95.562671-21.99141l312.278016-151.940648c13.59469-6.397501 19.192503-22.391253 13.194846-36.385787z" fill="#1296db" p-id="11971"></path><path d="M588.370168 136.34674h12.795002v487.809449h-12.795002z" fill="#1296db" p-id="11972"></path><path d="M726.864069 360.379227L735.912534 369.427692l-136.578649 136.538665-9.044467-9.048466z" fill="#1296db" p-id="11973"></path><path d="M463.866802 270.626287l135.994877 135.994877-9.048465 9.048465L454.822335 279.674752z" fill="#1296db" p-id="11974"></path><path d="M789.491605 354.66146c-7.597032 0-14.794221-2.798907-19.992191-8.39672-5.19797-5.19797-8.39672-12.395158-8.39672-19.99219h12.795002c0 3.998438 1.599375 7.996876 4.398282 10.795783 2.798907 2.798907 6.797345 4.398282 10.795783 4.398282 8.39672 0 15.593909-6.797345 15.593909-15.593909 0-7.597032-5.997657-13.59469-13.59469-13.59469h-1.999219c-15.593909 0-28.388911-12.795002-28.388911-28.38891 0-15.593909 12.795002-28.388911 28.388911-28.388911 15.593909 0 28.388911 12.795002 28.388911 28.388911v0.399844h-12.795002c0-8.39672-6.797345-15.593909-15.593909-15.593909s-15.593909 6.797345-15.593909 15.593909c0 8.39672 6.797345 15.593909 15.593909 15.593908h1.999219c14.794221 0 26.789535 11.995314 26.789535 26.789536 0.399844 15.194065-12.395158 27.989067-28.38891 27.989066z" fill="#1296db" p-id="11975"></path><path d="M783.094104 242.305349h12.795002v19.992191h-12.795002zM783.094104 348.263959h12.795002v19.992191h-12.795002z" fill="#1296db" p-id="11976"></path><path d="M789.491605 395.845373c-49.580633 0-89.964857-40.384225-89.964858-89.964858s40.384225-89.964857 89.964858-89.964857 89.964857 40.384225 89.964857 89.964857-40.384225 89.964857-89.964857 89.964858z m0-166.734869c-42.383444 0-76.770012 34.386568-76.770012 76.770011s34.386568 76.770012 76.770012 76.770012 76.770012-34.386568 76.770012-76.770012c0.399844-41.9836-34.386568-76.770012-76.770012-76.770011z" fill="#1296db" p-id="11977"></path><path d="M400.443577 264.296759c-15.593909 0-28.388911-12.795002-28.388911-28.388911h12.795002c0 8.39672 6.797345 15.593909 15.593909 15.593909 8.39672 0 15.593909-6.797345 15.593908-15.593909 0-7.597032-5.997657-13.59469-13.594689-13.594689h-1.999219c-15.593909 0-28.388911-12.795002-28.388911-28.388911 0-15.593909 12.795002-28.388911 28.388911-28.38891 15.593909 0 28.388911 12.795002 28.38891 28.38891v0.399844H416.037485v-0.399844c0-8.39672-6.797345-15.593909-15.593908-15.593908-8.39672 0-15.593909 6.797345-15.593909 15.593908 0 8.39672 6.797345 15.593909 15.593909 15.593909h1.999219c14.794221 0 26.789535 11.995314 26.789535 26.789535-0.399844 15.194065-13.194846 27.989067-28.788754 27.989067z" fill="#1296db" p-id="11978"></path><path d="M394.046076 151.940648h12.795002v19.992191h-12.795002zM394.046076 257.899258h12.795002v19.992191h-12.795002z" fill="#1296db" p-id="11979"></path><path d="M400.443577 305.480672c-49.580633 0-89.964857-40.384225-89.964858-89.964858s40.384225-89.964857 89.964858-89.964857 89.964857 40.384225 89.964857 89.964857c-0.399844 49.580633-40.384225 89.964857-89.964857 89.964858z m0-166.73487c-42.383444 0-76.770012 34.386568-76.770012 76.770012S358.060133 292.285826 400.443577 292.285826s76.770012-34.386568 76.770011-76.770012c0-41.9836-34.386568-76.770012-76.770011-76.770012z" fill="#1296db" p-id="11980"></path><path d="M594.767669 103.559547c-11.595471 0-21.191722-9.596251-21.191722-21.191722h12.795002c0 4.398282 3.598594 8.39672 8.39672 8.39672 4.398282 0 8.39672-3.598594 8.39672-8.39672 0-3.998438-3.19875-7.197189-7.197189-7.197189h-1.199531c-11.595471 0-21.191722-9.596251-21.191722-21.191722s9.596251-21.191722 21.191722-21.191721 21.191722 9.596251 21.191722 21.191721l-12.795002 0.399844v-0.399844c0-4.398282-3.598594-8.39672-8.39672-8.39672-4.398282 0-8.39672 3.598594-8.39672 8.39672 0 4.398282 3.598594 8.39672 8.39672 8.396721h1.199531c11.195627 0 19.992191 9.196408 19.992191 19.99219 0 11.595471-9.596251 21.191722-21.191722 21.191722z" fill="#1296db" p-id="11981"></path><path d="M588.370168 25.590004h12.795002v13.194846h-12.795002zM588.370168 97.162046h12.795002v13.194846h-12.795002z" fill="#1296db" p-id="11982"></path><path d="M594.767669 136.746583c-37.585318 0-68.373292-30.787973-68.373292-68.373291 0-37.585318 30.787973-68.373292 68.373292-68.373292 37.585318 0 68.373292 30.787973 68.373292 68.373292 0 37.985162-30.787973 68.373292-68.373292 68.373291z m0-123.551737c-30.38813 0-55.178446 24.790316-55.178446 55.178446 0 30.38813 24.790316 55.178446 55.178446 55.178446 30.38813 0 55.178446-24.790316 55.178446-55.178446 0-30.38813-24.790316-55.178446-55.178446-55.178446z" fill="#1296db" p-id="11983"></path><path d="M289.286997 568.178055h-143.943772l-12.395158-165.535337h-79.968762l163.935962-132.348302 163.935963 132.348302H301.282312l-11.995315 165.535337z m-132.348301-13.194845h119.953143l12.395158-165.535338H344.065599L217.315111 286.688012 89.764936 389.447872h54.778602l12.395158 165.535338z" fill="#1296db" p-id="11984"></path><path d="M170.533385 539.789145l-12.395158-165.135494h-25.590004l84.766888-68.773136 84.766888 68.773136H276.092152l-12.395159 165.135494z" fill="#1296db" p-id="11985"></path><path d="M284.888715 616.959H149.341663l-3.19875-32.787192H288.087466l-3.198751 32.787192z m-123.951581-12.795002h111.956267l0.799688-7.197188H160.53729l0.399844 7.197188z" fill="#1296db" p-id="11986"></path><path d="M151.340882 630.153846H284.089028v12.795002H151.340882z" fill="#1296db" p-id="11987"></path><path d="M549.585318 890.052323c-16.79344 0-33.187036-2.399063-49.580632-6.797344h-1.599376l-0.799687-0.799688c-0.799688-0.399844-1.599375-0.399844-2.798907-0.799688h-1.599375l-0.799688-0.799687c-0.399844 0-0.799688-0.399844-1.199531-0.399844l0.399844-0.799688 0.399843-0.399844 3.998439-11.195626c0.399844 0 1.199531 0.399844 1.599375 0.399844h1.599375l0.399844 0.399843c2.399063 0.399844 4.798126 0.399844 7.197188 0.399844 15.993752 0 31.187817-8.796564 39.184694-22.391253 0.399844-0.799688 1.199531-1.999219 1.599375-3.198751 9.196408-21.191722 0.399844-47.581414-19.592347-57.577509l-4.398281-2.399062-189.525967-98.761422 9.196408-5.997657c59.976572-39.184693 147.94221-61.575947 241.105818-61.575947 149.941429 0 279.890668 58.77704 309.878953 139.54549l1.999219 5.597814-244.304568 103.159703c-1.999219 0.799688-4.398282 1.599375-6.397501 2.399063-4.398282 1.599375-8.39672 3.19875-12.795002 4.798125l-1.599375 0.399844-3.598595 1.199532c-27.989067 10.795783-53.579071 15.593909-77.969543 15.593908z m-16.79344-13.994533c27.989067 2.798907 57.177665-1.599375 90.764545-13.194846 1.199531-0.399844 2.399063-0.799688 3.198751-1.199531l1.599375-0.799688c3.998438-1.599375 8.39672-3.19875 12.395158-4.798126l5.997657-2.399062 231.909411-97.961734c-31.987505-72.771574-154.339711-125.151113-295.084733-125.151113-85.966419 0-167.134713 19.592347-224.712222 53.579071l173.932058 90.764545c25.590004 12.795002 37.585318 46.781726 25.590004 74.370949-0.799688 1.599375-1.199531 2.798907-1.999219 4.398282-5.597813 9.596251-13.994533 17.593128-23.590785 22.391253z" fill="#1296db" p-id="11988"></path><path d="M569.577509 860.463881c0.799688-1.599375 1.999219-3.598594 2.798906-5.197969 15.194065-34.786412 0.399844-76.770012-32.787192-93.563452l-3.998438-1.999219L391.247169 684.132761c52.779383-24.790316 120.752831-38.385006 192.324873-38.385006 123.951581 0 235.907848 43.183132 274.292855 102.759859L641.149551 840.071847c-1.999219 0.799688-3.998438 1.599375-5.597813 2.399063l-11.995315 4.798126-1.999219 0.799687c-0.799688 0.399844-1.999219 0.799688-2.798906 0.799688-17.992971 5.997657-33.986724 9.996095-49.180789 11.59547z" fill="#1296db" p-id="11989"></path></svg>