<?xml version="1.0" standalone="no"?><!DOCTYPE svg PUBLIC "-//W3C//DTD SVG 1.1//EN" "http://www.w3.org/Graphics/SVG/1.1/DTD/svg11.dtd"><svg t="1562670132905" class="icon" viewBox="0 0 1025 1024" version="1.1" xmlns="http://www.w3.org/2000/svg" p-id="9881" xmlns:xlink="http://www.w3.org/1999/xlink" width="200.1953125" height="200"><defs><style type="text/css"></style></defs><path d="M149.439944 174.463935l440.383835 0 0 148.159944-440.383835 0 0-148.159944Z" p-id="9882" fill="#1296db"></path><path d="M794.367702 174.463935l-144.895946 0 0 148.159944 144.895946 0L794.367702 174.463935zM722.559729 281.535894c-21.375992 0-38.655986-17.343993-38.655986-38.783985 0-21.375992 17.343993-38.719985 38.655986-38.719985 21.311992 0 38.655986 17.343993 38.655986 38.719985C761.151715 264.191901 743.935721 281.535894 722.559729 281.535894z" p-id="9883" fill="#1296db"></path><path d="M1023.999616 929.727651l-78.655971-79.03997L945.343645 0 0 0l0 889.599666 796.223701 0 133.88795 134.39995c0 0 43.135984 0.448 69.183974-29.439989C1025.343615 964.799638 1023.999616 929.727651 1023.999616 929.727651zM63.999976 826.49569 63.999976 86.847967l817.279694 0 0 699.391738L825.59969 730.495726l-25.72799 15.615994-39.167985-38.015986c61.055977-86.143968 53.82398-206.207923-23.039991-283.327894-80.89597-81.27997-208.511922-84.735968-294.65589-12.607995L149.439944 412.159845l0 56.575979 245.055908 0c-17.023994 28.799989-26.62399 60.415977-29.439989 92.735965L149.439944 561.471789l0 56.255979 217.343918 0c5.695998 33.151988 19.199993 64.831976 39.871985 92.991965L149.439944 710.719733l0 56.383979 317.375881 0c74.687972 46.719982 170.687936 44.031983 242.943909-7.743997l36.671986 35.519987-14.655995 29.887989 1.663999 1.663999L63.999976 826.49569 63.999976 826.49569zM463.039826 700.607737c-65.919975-66.303975-65.919975-173.631935 0.128-239.93591 65.855975-66.303975 172.863935-66.367975 238.97591-0.064 65.983975 66.303975 65.983975 173.695935-0.192 239.99991C636.095761 766.719712 529.087802 766.847712 463.039826 700.607737z" p-id="9884" fill="#1296db"></path></svg>